<mxfile host="app.diagrams.net" modified="2023-07-15T09:18:02.408Z" agent="Mozilla/5.0 (Macintosh; Intel Mac OS X 10_15_7) AppleWebKit/537.36 (KHTML, like Gecko) Chrome/114.0.0.0 Safari/537.36" etag="cXWBnCYXJGll1FVzaZqw" version="21.6.2" type="github" pages="2">
  <diagram name="Page-1" id="ZfweChOSfCJsJOFHZBq5">
    <mxGraphModel dx="1026" dy="633" grid="0" gridSize="10" guides="1" tooltips="1" connect="1" arrows="1" fold="1" page="1" pageScale="1" pageWidth="827" pageHeight="1169" background="#000000" math="0" shadow="0">
      <root>
        <mxCell id="0" />
        <mxCell id="1" parent="0" />
        <mxCell id="21HqBZIh8yiV_5ZXqnAo-1" value="" style="rounded=0;whiteSpace=wrap;html=1;" vertex="1" parent="1">
          <mxGeometry x="104" width="11" height="64" as="geometry" />
        </mxCell>
      </root>
    </mxGraphModel>
  </diagram>
  <diagram id="cxQVlDmz9CeXScHicnLO" name="Page-2">
    <mxGraphModel dx="1853" dy="633" grid="0" gridSize="10" guides="1" tooltips="1" connect="1" arrows="1" fold="1" page="1" pageScale="1" pageWidth="827" pageHeight="1169" math="0" shadow="0">
      <root>
        <mxCell id="0" />
        <mxCell id="1" parent="0" />
        <mxCell id="rTO8PEorEQ29I2duOrUS-1" value="" style="rounded=0;whiteSpace=wrap;html=1;fillColor=#000000;strokeColor=#b85450;labelBorderColor=#FFFFFF;" vertex="1" parent="1">
          <mxGeometry x="-62" y="59" width="1036" height="638" as="geometry" />
        </mxCell>
        <mxCell id="rTO8PEorEQ29I2duOrUS-2" value="" style="rounded=0;whiteSpace=wrap;html=1;fillColor=#000000;strokeColor=#d6b656;fontColor=#FFFFFF;labelBorderColor=#FFFFFF;labelBackgroundColor=#000000;" vertex="1" parent="1">
          <mxGeometry x="-60" y="62" width="1028" height="42" as="geometry" />
        </mxCell>
        <mxCell id="rTO8PEorEQ29I2duOrUS-4" value="" style="rounded=0;whiteSpace=wrap;html=1;fillColor=#fff2cc;strokeColor=#d6b656;" vertex="1" parent="1">
          <mxGeometry x="-56" y="653" width="1028" height="42" as="geometry" />
        </mxCell>
      </root>
    </mxGraphModel>
  </diagram>
</mxfile>
